<?xml version="1.0" encoding="UTF-8" standalone="no"?>
<svg width="136px" height="131px" viewBox="0 0 136 131" version="1.1" xmlns="http://www.w3.org/2000/svg" xmlns:xlink="http://www.w3.org/1999/xlink" xmlns:sketch="http://www.bohemiancoding.com/sketch/ns">
    <!-- Generator: Sketch 3.4.2 (15857) - http://www.bohemiancoding.com/sketch -->
    <title>icon</title>
    <desc>Created with Sketch.</desc>
    <defs></defs>
    <g id="Page-1" stroke="none" stroke-width="1" fill="none" fill-rule="evenodd" sketch:type="MSPage">
        <g id="Desktop-HD" sketch:type="MSArtboardGroup" transform="translate(-652.000000, -4079.000000)" fill="#FFFFFF">
            <g id="Slide-4" sketch:type="MSLayerGroup" transform="translate(0.000000, 3838.000000)">
                <g id="DOWNLOAD-+-icon-+-Or-touch-it-on-Githu" transform="translate(600.000000, 241.000000)" sketch:type="MSShapeGroup">
                    <g id="icon" transform="translate(52.000000, 0.000000)">
                        <path d="M112.052174,41.3913043 C109.095652,18.0347826 88.9913043,0 65.0434783,0 C40.5043478,0 20.1043478,18.626087 18.0347826,42.8695652 C7.39130435,46.4173913 0,56.4695652 0,68 C0,82.7826087 11.826087,94.6086957 26.6086957,94.6086957 L65.0434783,94.6086957 L65.0434783,50.2608696 C65.0434783,48.4869565 66.226087,47.3043478 68,47.3043478 C69.773913,47.3043478 70.9565217,48.4869565 70.9565217,50.2608696 L70.9565217,94.6086957 L109.391304,94.6086957 C124.173913,94.6086957 136,82.7826087 136,68 C136,54.1043478 125.356522,42.8695652 112.052174,41.3913043 L112.052174,41.3913043 Z" id="Shape"></path>
                        <path d="M83.6695652,107.321739 L70.9565217,120.034783 L70.9565217,94.6086957 L65.0434783,94.6086957 L65.0434783,120.034783 L52.3304348,107.321739 C51.1478261,106.13913 49.373913,106.13913 48.1913043,107.321739 C47.0086957,108.504348 47.0086957,110.278261 48.1913043,111.46087 L65.9304348,129.2 C66.226087,129.495652 66.5217391,129.791304 66.8173913,129.791304 C67.1130435,130.086957 67.7043478,130.086957 68,130.086957 C68.2956522,130.086957 68.8869565,130.086957 69.1826087,129.791304 C69.4782609,129.495652 69.773913,129.495652 70.0695652,129.2 L87.8086957,111.46087 C88.9913043,110.278261 88.9913043,108.504348 87.8086957,107.321739 C86.626087,106.13913 84.8521739,106.13913 83.6695652,107.321739 L83.6695652,107.321739 Z" id="Shape"></path>
                    </g>
                </g>
            </g>
        </g>
    </g>
</svg>