<?xml version="1.0" encoding="UTF-8" standalone="no"?>
<svg width="24px" height="20px" viewBox="0 0 24 20" version="1.1" xmlns="http://www.w3.org/2000/svg" xmlns:xlink="http://www.w3.org/1999/xlink" xmlns:sketch="http://www.bohemiancoding.com/sketch/ns">
    <!-- Generator: Sketch 3.4.2 (15857) - http://www.bohemiancoding.com/sketch -->
    <title>social-48px-glyph-1_logo-twitter-2</title>
    <desc>Created with Sketch.</desc>
    <defs></defs>
    <g id="Page-1" stroke="none" stroke-width="1" fill="none" fill-rule="evenodd" sketch:type="MSPage">
        <g id="Desktop-HD" sketch:type="MSArtboardGroup" transform="translate(-708.000000, -4642.000000)" fill="#55ACEE">
            <g id="social-48px-glyph-1_logo-twitter-2" sketch:type="MSLayerGroup" transform="translate(708.000000, 4642.000000)">
                <path d="M24,2.55 C23.1,2.95 22.15,3.2 21.15,3.35 C22.15,2.75 22.95,1.8 23.3,0.65 C22.35,1.2 21.3,1.6 20.15,1.85 C19.25,0.9 17.95,0.3 16.55,0.3 C13.85,0.3 11.65,2.5 11.65,5.2 C11.65,5.6 11.7,5.95 11.8,6.3 C7.75,6.1 4.1,4.15 1.65,1.15 C1.25,1.9 1,2.7 1,3.6 C1,5.3 1.85,6.8 3.2,7.7 C2.4,7.65 1.65,7.45 0.95,7.1 L0.95,7.15 C0.95,9.55 2.65,11.55 4.9,12 C4.5,12.1 4.05,12.15 3.6,12.15 C3.3,12.15 2.95,12.1 2.65,12.05 C3.3,14 5.1,15.45 7.25,15.45 C5.55,16.75 3.45,17.55 1.15,17.55 C0.75,17.55 0.35,17.55 0,17.5 C2.2,18.9 4.75,19.7 7.55,19.7 C16.6,19.7 21.55,12.2 21.55,5.7 L21.55,5.05 C22.5,4.4 23.35,3.55 24,2.55 L24,2.55 Z" id="Shape" sketch:type="MSShapeGroup"></path>
            </g>
        </g>
    </g>
</svg>